<?xml version="1.0" standalone="no"?><!DOCTYPE svg PUBLIC "-//W3C//DTD SVG 1.1//EN" "http://www.w3.org/Graphics/SVG/1.1/DTD/svg11.dtd"><svg t="1709021696128" class="icon" viewBox="0 0 1024 1024" version="1.1" xmlns="http://www.w3.org/2000/svg" p-id="3291" xmlns:xlink="http://www.w3.org/1999/xlink" width="200" height="200"><path d="M234.666667 746.666667c59.733333 0 117.333333-23.466667 160-64l2.133333-2.133334 57.6-55.466666c17.066667-17.066667 17.066667-42.666667 2.133333-59.733334-17.066667-17.066667-42.666667-17.066667-59.733333-2.133333L339.2 618.666667h-2.133333c-27.733333 27.733333-64 42.666667-102.4 42.666666-83.2 0-149.333333-66.133333-149.333334-149.333333s66.133333-149.333333 149.333334-149.333333c38.4 0 74.666667 14.933333 102.4 42.666666l2.133333 2.133334L625.066667 682.666667l2.133333 2.133333c42.666667 40.533333 100.266667 64 160 64 130.133333 0 234.666667-104.533333 234.666667-234.666667S919.466667 277.333333 789.333333 277.333333c-59.733333 0-117.333333 23.466667-162.133333 64h-2.133333l-57.6 55.466667c-17.066667 17.066667-17.066667 42.666667-2.133334 59.733333 8.533333 8.533333 19.2 12.8 29.866667 12.8 10.666667 0 21.333333-4.266667 29.866667-12.8l59.733333-51.2h2.133333c27.733333-27.733333 64-42.666667 102.4-42.666666 83.2 0 149.333333 66.133333 149.333334 149.333333s-66.133333 149.333333-149.333334 149.333333c-38.4 0-74.666667-14.933333-102.4-42.666666l-2.133333-2.133334-288-273.066666h-2.133333c-42.666667-40.533333-100.266667-64-162.133334-64C104.533333 277.333333 0 381.866667 0 512s104.533333 234.666667 234.666667 234.666667" fill="#3b01c4" p-id="3292"></path></svg>